<svg width="3270" height="800" viewBox="0 0 3270 800" fill="none" xmlns="http://www.w3.org/2000/svg">
<path d="M1066.4 224.64C1125.28 224.64 1158.56 232.96 1192.48 252.8V378.88H1187.36C1162.4 346.24 1122.08 328.32 1072.16 328.32C1001.76 328.32 955.68 373.76 955.68 443.52C955.68 513.28 1001.76 558.72 1072.16 558.72C1122.08 558.72 1162.4 540.8 1187.36 508.16H1192.48V634.24C1158.56 654.08 1125.28 662.4 1066.4 662.4C930.08 662.4 837.92 571.52 837.92 443.52C837.92 315.52 930.08 224.64 1066.4 224.64ZM1433.09 347.52C1451.65 347.52 1468.29 352 1476.61 359.04V458.24H1472.77C1460.61 449.92 1443.33 444.8 1424.77 444.8C1378.05 444.8 1358.21 471.04 1358.21 531.2V656H1255.81V353.92H1340.29L1345.41 401.92H1346.69C1362.69 365.44 1390.21 347.52 1433.09 347.52ZM1809.54 526.08H1604.1C1613.06 560.64 1644.42 576 1687.3 576C1729.54 576 1766.02 564.48 1788.42 542.72H1792.26V638.08C1768.58 653.44 1728.26 662.4 1681.54 662.4C1574.66 662.4 1500.42 597.12 1500.42 504.96C1500.42 412.8 1565.7 347.52 1657.86 347.52C1751.3 347.52 1809.54 403.2 1809.54 492.16V526.08ZM1661.06 433.92C1635.46 433.92 1611.14 448 1604.1 476.16H1718.02C1711.62 447.36 1689.86 433.92 1661.06 433.92ZM2166.7 656H2082.22L2078.38 619.52H2077.1C2059.82 647.04 2030.38 662.4 1990.7 662.4C1906.86 662.4 1845.42 595.84 1845.42 504.96C1845.42 414.08 1906.86 347.52 1990.7 347.52C2020.78 347.52 2045.1 356.48 2063.02 373.12H2064.3V208H2166.7V656ZM2007.98 571.52C2043.18 571.52 2066.86 544.64 2066.86 504.96C2066.86 465.28 2043.18 438.4 2007.98 438.4C1972.78 438.4 1949.1 465.28 1949.1 504.96C1949.1 544.64 1972.78 571.52 2007.98 571.52ZM2287.01 200.96C2322.85 200.96 2347.81 225.92 2347.81 261.76C2347.81 297.6 2322.85 322.56 2287.01 322.56C2251.17 322.56 2226.21 297.6 2226.21 261.76C2226.21 225.92 2251.17 200.96 2287.01 200.96ZM2235.81 656V353.92H2338.21V656H2235.81ZM2610.58 554.88V652.8C2595.22 659.2 2576.02 662.4 2548.5 662.4C2469.14 662.4 2428.18 620.8 2428.18 538.88V440.96H2381.46V353.92H2431.38L2443.54 268.16H2530.58V353.92H2609.94V440.96H2530.58V535.04C2530.58 558.72 2543.38 571.52 2565.78 571.52C2580.5 571.52 2593.3 568.32 2606.74 554.88H2610.58Z" fill="black"/>
<path d="M2676.72 207.88H2697.12V639.68C2697.12 649.2 2689.64 656 2680.12 656H2660.4V224.2C2660.4 215.36 2667.2 207.88 2676.72 207.88ZM3018.78 187.48C3081.34 188.84 3139.82 214 3183.34 259.56C3246.58 324.84 3266.3 422.08 3232.98 507.08L3214.62 499.6C3206.46 496.2 3202.38 488.04 3204.42 479.88C3225.5 411.2 3207.14 335.72 3157.5 284.04C3120.78 245.96 3071.14 224.88 3018.1 223.52C2965.06 222.84 2915.42 242.56 2876.66 279.28C2838.58 316 2817.5 365.64 2816.14 418.68C2815.46 471.72 2835.18 522.04 2871.9 560.12C2910.66 599.56 2963.7 621.32 3018.78 620.64H3019.46H3214.62C3223.46 620.64 3230.94 627.44 3230.94 636.96V656H3019.46C3018.1 656 3016.74 656.68 3014.7 656.68C2951.46 656.68 2890.26 630.16 2846.06 584.6C2799.82 537 2776.7 473.08 2780.78 405.76C2784.86 352.72 2806.62 301.72 2842.66 262.96C2888.9 213.32 2952.14 186.8 3018.78 187.48Z" fill="black"/>
<rect width="800" height="800" rx="75" fill="black"/>
<mask id="path-4-outside-1_13_53" maskUnits="userSpaceOnUse" x="91" y="115" width="649" height="530" fill="black">
<rect fill="white" x="91" y="115" width="649" height="530"/>
<path d="M137.72 165.88H158.12V597.68C158.12 607.2 150.64 614 141.12 614H121.4V182.2C121.4 173.36 128.2 165.88 137.72 165.88ZM479.781 145.48C542.341 146.84 600.821 172 644.341 217.56C707.581 282.84 727.301 380.08 693.981 465.08L675.621 457.6C667.461 454.2 663.381 446.04 665.421 437.88C686.501 369.2 668.141 293.72 618.501 242.04C581.781 203.96 532.141 182.88 479.101 181.52C426.061 180.84 376.421 200.56 337.661 237.28C299.581 274 278.501 323.64 277.141 376.68C276.461 429.72 296.181 480.04 332.901 518.12C371.661 557.56 424.701 579.32 479.781 578.64H480.461H675.621C684.461 578.64 691.941 585.44 691.941 594.96V614H480.461C479.101 614 477.741 614.68 475.701 614.68C412.461 614.68 351.261 588.16 307.061 542.6C260.821 495 237.701 431.08 241.781 363.76C245.861 310.72 267.621 259.72 303.661 220.96C349.901 171.32 413.141 144.8 479.781 145.48Z"/>
</mask>
<path d="M137.72 165.88H158.12V597.68C158.12 607.2 150.64 614 141.12 614H121.4V182.2C121.4 173.36 128.2 165.88 137.72 165.88ZM479.781 145.48C542.341 146.84 600.821 172 644.341 217.56C707.581 282.84 727.301 380.08 693.981 465.08L675.621 457.6C667.461 454.2 663.381 446.04 665.421 437.88C686.501 369.2 668.141 293.72 618.501 242.04C581.781 203.96 532.141 182.88 479.101 181.52C426.061 180.84 376.421 200.56 337.661 237.28C299.581 274 278.501 323.64 277.141 376.68C276.461 429.72 296.181 480.04 332.901 518.12C371.661 557.56 424.701 579.32 479.781 578.64H480.461H675.621C684.461 578.64 691.941 585.44 691.941 594.96V614H480.461C479.101 614 477.741 614.68 475.701 614.68C412.461 614.68 351.261 588.16 307.061 542.6C260.821 495 237.701 431.08 241.781 363.76C245.861 310.72 267.621 259.72 303.661 220.96C349.901 171.32 413.141 144.8 479.781 145.48Z" fill="white"/>
<path d="M158.12 165.88H188.12V135.88H158.12V165.88ZM121.4 614H91.4V644H121.4V614ZM137.72 165.88V195.88H158.12V165.88V135.88H137.72V165.88ZM158.12 165.88H128.12V597.68H158.12H188.12V165.88H158.12ZM158.12 597.68H128.12C128.12 594.221 129.626 590.401 132.591 587.6C135.426 584.923 138.68 584 141.12 584V614V644C165.57 644 188.12 625.361 188.12 597.68H158.12ZM141.12 614V584H121.4V614V644H141.12V614ZM121.4 614H151.4V182.2H121.4H91.4V614H121.4ZM121.4 182.2H151.4C151.4 185.535 150.093 188.968 147.508 191.629C144.801 194.416 141.141 195.88 137.72 195.88V165.88V135.88C110.818 135.88 91.4 157.617 91.4 182.2H121.4ZM479.781 145.48L480.433 115.487L480.26 115.483L480.087 115.482L479.781 145.48ZM644.341 217.56L622.648 238.282L622.721 238.358L622.794 238.434L644.341 217.56ZM693.981 465.08L682.662 492.863L710.817 504.333L721.912 476.029L693.981 465.08ZM675.621 457.6L664.083 485.292L664.192 485.338L664.302 485.383L675.621 457.6ZM665.421 437.88L636.742 429.077L636.509 429.835L636.317 430.604L665.421 437.88ZM618.501 242.04L640.137 221.258L640.117 221.237L640.097 221.216L618.501 242.04ZM479.101 181.52L479.87 151.53L479.678 151.525L479.486 151.522L479.101 181.52ZM337.661 237.28L317.029 215.501L316.933 215.593L316.837 215.685L337.661 237.28ZM277.141 376.68L247.151 375.911L247.146 376.103L247.144 376.295L277.141 376.68ZM332.901 518.12L311.306 538.944L311.405 539.046L311.504 539.148L332.901 518.12ZM479.781 578.64V548.64H479.596L479.411 548.642L479.781 578.64ZM691.941 614V644H721.941V614H691.941ZM307.061 542.6L328.593 521.711L328.587 521.704L328.58 521.696L307.061 542.6ZM241.781 363.76L211.87 361.459L211.851 361.702L211.836 361.945L241.781 363.76ZM303.661 220.96L281.71 200.512L281.7 200.522L281.691 200.532L303.661 220.96ZM479.781 145.48L479.129 175.473C533.892 176.663 584.748 198.605 622.648 238.282L644.341 217.56L666.035 196.838C616.895 145.395 550.791 117.017 480.433 115.487L479.781 145.48ZM644.341 217.56L622.794 238.434C677.875 295.292 695.071 380.098 666.051 454.131L693.981 465.08L721.912 476.029C759.531 380.062 737.287 270.388 665.888 196.686L644.341 217.56ZM693.981 465.08L705.3 437.297L686.94 429.817L675.621 457.6L664.302 485.383L682.662 492.863L693.981 465.08ZM675.621 457.6L687.16 429.908C689.43 430.854 691.847 432.821 693.398 435.849C694.946 438.871 695.255 442.239 694.526 445.156L665.421 437.88L636.317 430.604C630.578 453.56 642.609 476.345 664.083 485.292L675.621 457.6ZM665.421 437.88L694.101 446.683C718.408 367.488 697.243 280.711 640.137 221.258L618.501 242.04L596.865 262.822C639.039 306.729 654.595 370.912 636.742 429.077L665.421 437.88ZM618.501 242.04L640.097 221.216C597.696 177.245 540.477 153.084 479.87 151.53L479.101 181.52L478.332 211.51C523.806 212.676 565.867 230.675 596.906 262.864L618.501 242.04ZM479.101 181.52L479.486 151.522C418.49 150.74 361.35 173.513 317.029 215.501L337.661 237.28L358.294 259.059C391.492 227.607 433.632 210.94 478.717 211.518L479.101 181.52ZM337.661 237.28L316.837 215.685C272.866 258.085 248.705 315.305 247.151 375.911L277.141 376.68L307.131 377.449C308.297 331.975 326.296 289.915 358.485 258.875L337.661 237.28ZM277.141 376.68L247.144 376.295C246.364 437.14 269.036 495.108 311.306 538.944L332.901 518.12L354.497 497.296C323.327 464.972 306.559 422.3 307.139 377.065L277.141 376.68ZM332.901 518.12L311.504 539.148C356.008 584.433 416.916 609.418 480.152 608.638L479.781 578.64L479.411 548.642C432.487 549.222 387.314 530.687 354.298 497.092L332.901 518.12ZM479.781 578.64V608.64H480.461V578.64V548.64H479.781V578.64ZM480.461 578.64V608.64H675.621V578.64V548.64H480.461V578.64ZM675.621 578.64V608.64C672.287 608.64 668.853 607.333 666.193 604.748C663.406 602.041 661.941 598.381 661.941 594.96H691.941H721.941C721.941 568.058 700.204 548.64 675.621 548.64V578.64ZM691.941 594.96H661.941V614H691.941H721.941V594.96H691.941ZM691.941 614V584H480.461V614V644H691.941V614ZM480.461 614V584C477.665 584 475.395 584.348 474.064 584.59C473.387 584.713 472.819 584.835 472.478 584.91C472.303 584.948 472.145 584.983 472.045 585.006C471.924 585.033 471.881 585.043 471.828 585.054C471.556 585.115 473.322 584.68 475.701 584.68V614.68V644.68C480.12 644.68 483.587 643.905 484.844 643.626C484.983 643.595 485.129 643.562 485.194 643.547C485.234 643.538 485.261 643.532 485.283 643.527C485.293 643.525 485.3 643.524 485.305 643.522C485.31 643.521 485.313 643.521 485.313 643.521C485.313 643.521 485.31 643.521 485.305 643.523C485.299 643.524 485.291 643.525 485.281 643.528C485.26 643.532 485.228 643.539 485.186 643.547C485.103 643.564 484.969 643.591 484.797 643.622C484.168 643.737 482.577 644 480.461 644V614ZM475.701 614.68V584.68C420.79 584.68 367.295 561.603 328.593 521.711L307.061 542.6L285.529 563.489C335.228 614.717 404.132 644.68 475.701 644.68V614.68ZM307.061 542.6L328.58 521.696C288.398 480.333 268.141 424.736 271.726 365.575L241.781 363.76L211.836 361.945C207.262 437.424 233.244 509.667 285.543 563.504L307.061 542.6ZM241.781 363.76L271.693 366.061C275.27 319.554 294.37 275.009 325.631 241.388L303.661 220.96L281.691 200.532C240.873 244.431 216.452 301.886 211.87 361.459L241.781 363.76ZM303.661 220.96L325.613 241.408C366.032 198.017 421.158 174.883 479.475 175.478L479.781 145.48L480.087 115.482C405.125 114.717 333.771 144.623 281.71 200.512L303.661 220.96Z" fill="white" mask="url(#path-4-outside-1_13_53)"/>
</svg>
