<svg width="800" height="800" viewBox="0 0 800 800" fill="none" xmlns="http://www.w3.org/2000/svg">
<rect width="800" height="800" rx="75" fill="black"/>
<mask id="path-2-outside-1_13_44" maskUnits="userSpaceOnUse" x="96" y="120" width="639" height="520" fill="white">
<rect fill="white" x="96" y="120" width="639" height="520"/>
<path d="M137.72 165.88H158.12V597.68C158.12 607.2 150.64 614 141.12 614H121.4V182.2C121.4 173.36 128.2 165.88 137.72 165.88ZM479.781 145.48C542.341 146.84 600.821 172 644.341 217.56C707.581 282.84 727.301 380.08 693.981 465.08L675.621 457.6C667.461 454.2 663.381 446.04 665.421 437.88C686.501 369.2 668.141 293.72 618.501 242.04C581.781 203.96 532.141 182.88 479.101 181.52C426.061 180.84 376.421 200.56 337.661 237.28C299.581 274 278.501 323.64 277.141 376.68C276.461 429.72 296.181 480.04 332.901 518.12C371.661 557.56 424.701 579.32 479.781 578.64H480.461H675.621C684.461 578.64 691.941 585.44 691.941 594.96V614H480.461C479.101 614 477.741 614.68 475.701 614.68C412.461 614.68 351.261 588.16 307.061 542.6C260.821 495 237.701 431.08 241.781 363.76C245.861 310.72 267.621 259.72 303.661 220.96C349.901 171.32 413.141 144.8 479.781 145.48Z"/>
</mask>
<path d="M137.72 165.88H158.12V597.68C158.12 607.2 150.64 614 141.12 614H121.4V182.2C121.4 173.36 128.2 165.88 137.72 165.88ZM479.781 145.48C542.341 146.84 600.821 172 644.341 217.56C707.581 282.84 727.301 380.08 693.981 465.08L675.621 457.6C667.461 454.2 663.381 446.04 665.421 437.88C686.501 369.2 668.141 293.72 618.501 242.04C581.781 203.96 532.141 182.88 479.101 181.52C426.061 180.84 376.421 200.56 337.661 237.28C299.581 274 278.501 323.64 277.141 376.68C276.461 429.72 296.181 480.04 332.901 518.12C371.661 557.56 424.701 579.32 479.781 578.64H480.461H675.621C684.461 578.64 691.941 585.44 691.941 594.96V614H480.461C479.101 614 477.741 614.68 475.701 614.68C412.461 614.68 351.261 588.16 307.061 542.6C260.821 495 237.701 431.08 241.781 363.76C245.861 310.72 267.621 259.72 303.661 220.96C349.901 171.32 413.141 144.8 479.781 145.48Z" fill="white"/>
<path d="M158.12 165.88H183.12V140.88H158.12V165.88ZM121.4 614H96.4V639H121.4V614ZM137.72 165.88V190.88H158.12V165.88V140.88H137.72V165.88ZM158.12 165.88H133.12V597.68H158.12H183.12V165.88H158.12ZM158.12 597.68H133.12C133.12 595.591 134.063 593.087 136.024 591.235C137.877 589.485 139.88 589 141.12 589V614V639C163.082 639 183.12 622.334 183.12 597.68H158.12ZM141.12 614V589H121.4V614V639H141.12V614ZM121.4 614H146.4V182.2H121.4H96.4V614H121.4ZM121.4 182.2H146.4C146.4 184.242 145.594 186.423 143.922 188.145C142.147 189.971 139.777 190.88 137.72 190.88V165.88V140.88C113.715 140.88 96.4 160.241 96.4 182.2H121.4ZM479.781 145.48L480.325 120.486L480.181 120.483L480.036 120.481L479.781 145.48ZM644.341 217.56L626.264 234.828L626.324 234.892L626.385 234.955L644.341 217.56ZM693.981 465.08L684.549 488.232L708.011 497.791L717.257 474.204L693.981 465.08ZM675.621 457.6L666.006 480.677L666.097 480.715L666.189 480.752L675.621 457.6ZM665.421 437.88L641.522 430.544L641.328 431.176L641.168 431.817L665.421 437.88ZM618.501 242.04L636.531 224.722L636.514 224.704L636.497 224.687L618.501 242.04ZM479.101 181.52L479.742 156.528L479.582 156.524L479.422 156.522L479.101 181.52ZM337.661 237.28L320.468 219.131L320.387 219.207L320.308 219.284L337.661 237.28ZM277.141 376.68L252.149 376.039L252.145 376.199L252.143 376.36L277.141 376.68ZM332.901 518.12L314.905 535.473L314.987 535.559L315.071 535.643L332.901 518.12ZM479.781 578.64V553.64H479.627L479.473 553.642L479.781 578.64ZM691.941 614V639H716.941V614H691.941ZM307.061 542.6L325.005 525.192L324.999 525.186L324.993 525.18L307.061 542.6ZM241.781 363.76L216.855 361.843L216.839 362.045L216.827 362.248L241.781 363.76ZM303.661 220.96L285.368 203.92L285.361 203.928L285.353 203.936L303.661 220.96ZM479.781 145.48L479.238 170.474C535.3 171.693 587.427 194.171 626.264 234.828L644.341 217.56L662.419 200.292C614.216 149.829 549.383 121.987 480.325 120.486L479.781 145.48ZM644.341 217.56L626.385 234.955C682.826 293.216 700.443 380.095 670.706 455.956L693.981 465.08L717.257 474.204C754.159 380.065 732.336 272.464 662.297 200.165L644.341 217.56ZM693.981 465.08L703.414 441.928L685.054 434.448L675.621 457.6L666.189 480.752L684.549 488.232L693.981 465.08ZM675.621 457.6L685.237 434.523C686.449 435.028 687.953 436.186 688.947 438.128C689.94 440.066 690.112 442.193 689.675 443.943L665.421 437.88L641.168 431.817C636.045 452.307 646.751 472.654 666.006 480.677L675.621 457.6ZM665.421 437.88L689.321 445.216C713.09 367.773 692.393 282.879 636.531 224.722L618.501 242.04L600.471 259.358C643.89 304.561 659.912 370.627 641.522 430.544L665.421 437.88ZM618.501 242.04L636.497 224.687C595.043 181.697 539.087 158.05 479.742 156.528L479.101 181.52L478.46 206.512C525.195 207.71 568.519 226.223 600.505 259.393L618.501 242.04ZM479.101 181.52L479.422 156.522C419.752 155.757 363.862 178.021 320.468 219.131L337.661 237.28L354.855 255.429C388.981 223.099 432.37 205.923 478.781 206.518L479.101 181.52ZM337.661 237.28L320.308 219.284C277.319 260.738 253.671 316.694 252.149 376.039L277.141 376.68L302.133 377.321C303.331 330.586 321.844 287.262 355.015 255.276L337.661 237.28ZM277.141 376.68L252.143 376.36C251.38 435.903 273.56 492.597 314.905 535.473L332.901 518.12L350.897 500.767C318.803 467.483 301.543 423.537 302.139 377L277.141 376.68ZM332.901 518.12L315.071 535.643C358.617 579.954 418.213 604.402 480.09 603.638L479.781 578.64L479.473 553.642C431.189 554.238 384.705 535.166 350.732 500.597L332.901 518.12ZM479.781 578.64V603.64H480.461V578.64V553.64H479.781V578.64ZM480.461 578.64V603.64H675.621V578.64V553.64H480.461V578.64ZM675.621 578.64V603.64C673.579 603.64 671.398 602.834 669.677 601.162C667.85 599.387 666.941 597.017 666.941 594.96H691.941H716.941C716.941 570.955 697.58 553.64 675.621 553.64V578.64ZM691.941 594.96H666.941V614H691.941H716.941V594.96H691.941ZM691.941 614V589H480.461V614V639H691.941V614ZM480.461 614V589C478.074 589 476.126 589.297 474.959 589.509C474.365 589.617 473.862 589.725 473.548 589.794C473.387 589.829 473.239 589.862 473.141 589.884C473.024 589.91 472.972 589.922 472.913 589.935C472.558 590.014 473.889 589.68 475.701 589.68V614.68V639.68C479.554 639.68 482.584 639.006 483.76 638.745C484.202 638.646 484.058 638.677 484.243 638.636C484.292 638.626 484.145 638.659 483.903 638.703C483.437 638.788 482.168 639 480.461 639V614ZM475.701 614.68V589.68C419.402 589.68 364.623 566.029 325.005 525.192L307.061 542.6L289.118 560.008C337.9 610.291 405.521 639.68 475.701 639.68V614.68ZM307.061 542.6L324.993 525.18C283.802 482.778 263.068 425.794 266.735 365.272L241.781 363.76L216.827 362.248C212.335 436.366 237.84 507.222 289.129 560.02L307.061 542.6ZM241.781 363.76L266.708 365.677C270.369 318.082 289.912 272.461 321.97 237.984L303.661 220.96L285.353 203.936C245.331 246.979 221.354 303.358 216.855 361.843L241.781 363.76ZM303.661 220.96L321.954 238C363.343 193.568 419.822 169.869 479.526 170.479L479.781 145.48L480.036 120.481C406.461 119.73 336.459 149.072 285.368 203.92L303.661 220.96Z" fill="white" mask="url(#path-2-outside-1_13_44)"/>
</svg>
