<svg width="2432" height="477" viewBox="0 0 2432 477" fill="none" xmlns="http://www.w3.org/2000/svg">
<path d="M231.4 38.64C290.28 38.64 323.56 46.96 357.48 66.8V192.88H352.36C327.4 160.24 287.08 142.32 237.16 142.32C166.76 142.32 120.68 187.76 120.68 257.52C120.68 327.28 166.76 372.72 237.16 372.72C287.08 372.72 327.4 354.8 352.36 322.16H357.48V448.24C323.56 468.08 290.28 476.4 231.4 476.4C95.08 476.4 2.92 385.52 2.92 257.52C2.92 129.52 95.08 38.64 231.4 38.64ZM598.09 161.52C616.65 161.52 633.29 166 641.61 173.04V272.24H637.77C625.61 263.92 608.33 258.8 589.77 258.8C543.05 258.8 523.21 285.04 523.21 345.2V470H420.81V167.92H505.29L510.41 215.92H511.69C527.69 179.44 555.21 161.52 598.09 161.52ZM974.54 340.08H769.1C778.06 374.64 809.42 390 852.3 390C894.54 390 931.02 378.48 953.42 356.72H957.26V452.08C933.58 467.44 893.26 476.4 846.54 476.4C739.66 476.4 665.42 411.12 665.42 318.96C665.42 226.8 730.7 161.52 822.86 161.52C916.3 161.52 974.54 217.2 974.54 306.16V340.08ZM826.06 247.92C800.46 247.92 776.14 262 769.1 290.16H883.02C876.62 261.36 854.86 247.92 826.06 247.92ZM1331.7 470H1247.22L1243.38 433.52H1242.1C1224.82 461.04 1195.38 476.4 1155.7 476.4C1071.86 476.4 1010.42 409.84 1010.42 318.96C1010.42 228.08 1071.86 161.52 1155.7 161.52C1185.78 161.52 1210.1 170.48 1228.02 187.12H1229.3V22H1331.7V470ZM1172.98 385.52C1208.18 385.52 1231.86 358.64 1231.86 318.96C1231.86 279.28 1208.18 252.4 1172.98 252.4C1137.78 252.4 1114.1 279.28 1114.1 318.96C1114.1 358.64 1137.78 385.52 1172.98 385.52ZM1452.01 14.96C1487.85 14.96 1512.81 39.92 1512.81 75.76C1512.81 111.6 1487.85 136.56 1452.01 136.56C1416.17 136.56 1391.21 111.6 1391.21 75.76C1391.21 39.92 1416.17 14.96 1452.01 14.96ZM1400.81 470V167.92H1503.21V470H1400.81ZM1775.58 368.88V466.8C1760.22 473.2 1741.02 476.4 1713.5 476.4C1634.14 476.4 1593.18 434.8 1593.18 352.88V254.96H1546.46V167.92H1596.38L1608.54 82.16H1695.58V167.92H1774.94V254.96H1695.58V349.04C1695.58 372.72 1708.38 385.52 1730.78 385.52C1745.5 385.52 1758.3 382.32 1771.74 368.88H1775.58Z" fill="black"/>
<path d="M1841.72 21.88H1862.12V453.68C1862.12 463.2 1854.64 470 1845.12 470H1825.4V38.2C1825.4 29.36 1832.2 21.88 1841.72 21.88ZM2183.78 1.47999C2246.34 2.83998 2304.82 28 2348.34 73.56C2411.58 138.84 2431.3 236.08 2397.98 321.08L2379.62 313.6C2371.46 310.2 2367.38 302.04 2369.42 293.88C2390.5 225.2 2372.14 149.72 2322.5 98.04C2285.78 59.96 2236.14 38.88 2183.1 37.52C2130.06 36.84 2080.42 56.56 2041.66 93.28C2003.58 130 1982.5 179.64 1981.14 232.68C1980.46 285.72 2000.18 336.04 2036.9 374.12C2075.66 413.56 2128.7 435.32 2183.78 434.64H2184.46H2379.62C2388.46 434.64 2395.94 441.44 2395.94 450.96V470H2184.46C2183.1 470 2181.74 470.68 2179.7 470.68C2116.46 470.68 2055.26 444.16 2011.06 398.6C1964.82 351 1941.7 287.08 1945.78 219.76C1949.86 166.72 1971.62 115.72 2007.66 76.96C2053.9 27.32 2117.14 0.799961 2183.78 1.47999Z" fill="black"/>
</svg>
